<svg width="46" height="39" viewBox="0 0 46 39" fill="none" xmlns="http://www.w3.org/2000/svg">
<path d="M45.5522 4.93208C43.8686 5.73051 42.0799 6.26647 40.2452 6.52222C42.1687 5.29825 43.5976 3.39909 44.2658 1.17863C42.4606 2.32179 40.4767 3.13513 38.4047 3.59205C36.9932 2.08077 35.1333 1.09415 33.1141 0.785591C31.095 0.477029 29.0297 0.863808 27.2394 1.8858C25.4491 2.90778 24.0341 4.50772 23.2143 6.43688C22.3945 8.36603 22.2159 10.5163 22.7062 12.5534C19.0189 12.426 15.403 11.5022 12.0932 9.84204C8.78343 8.18187 5.85385 5.82244 3.49463 2.91692C2.68663 4.38614 2.27166 6.04778 2.29222 7.73165C2.32805 11.0367 3.99526 13.9288 6.50036 15.5961C5.02831 15.5734 3.58473 15.1891 2.28996 14.4752L2.29124 14.5937C2.31555 16.7949 3.07926 18.9156 4.45288 20.5963C5.82651 22.2769 7.72551 23.4142 9.82792 23.8151C8.46601 24.219 7.03427 24.2995 5.64108 24.0503C6.25305 25.9349 7.42374 27.5724 8.98925 28.7334C10.5548 29.8943 12.4367 30.5207 14.3715 30.5249C12.4658 32.1105 10.2769 33.2958 7.92995 34.0132C5.58303 34.7305 3.12414 34.9658 0.693846 34.7055C4.96093 37.4359 9.90898 38.8399 14.9461 38.7496C31.9954 38.4603 41.1615 23.7758 41.0249 11.1779C41.0205 10.7676 41.0049 10.353 40.9828 9.94758C42.7829 8.56779 44.331 6.87012 45.5545 4.93432L45.5522 4.93208Z" fill="#FDEEDC"/>
</svg>
