<svg width="142" height="97" viewBox="0 0 142 97" fill="none" xmlns="http://www.w3.org/2000/svg">
<path d="M26.5986 45.2782C12.7847 44.9069 1.33295 55.6164 1.00809 69.21C0.881826 74.3749 2.41154 79.454 5.38022 83.7266C8.3489 87.9993 12.6058 91.2486 17.547 93.0135C18.792 93.2612 19.2772 92.5356 19.2926 91.8885C19.3066 91.3054 19.3203 89.3682 19.3696 87.3064C13.0617 88.2768 11.4998 85.5882 11.0328 84.1896C10.7672 83.4734 9.60176 81.2583 8.55315 80.6442C7.68906 80.1606 6.46615 78.9878 8.55957 79.0145C10.5305 79.0355 11.8923 80.889 12.3447 81.6398C14.506 85.4203 18.1264 84.4713 19.5769 83.8653C19.8352 82.2719 20.5159 81.2144 21.2507 80.6186C15.7023 79.854 9.93999 77.5745 10.1649 68.1635C10.2289 65.4866 11.2493 63.3008 12.8857 61.6189C12.6504 60.9971 11.8355 58.4517 13.2915 55.1057C13.2915 55.1057 15.3997 54.5173 20.1069 57.8148C22.1556 57.3136 24.2652 57.0903 26.3774 57.1512C28.5026 57.2083 30.6213 57.541 32.6082 58.1483C37.4652 55.0783 39.5441 55.8137 39.5441 55.8137C40.8384 59.2337 39.9031 61.732 39.6384 62.3404C41.1899 64.1055 42.1078 66.3139 42.0431 69.0203C41.8175 78.4632 35.9244 80.3975 30.3466 80.8631C31.2334 81.6551 31.9807 83.1523 31.9255 85.4601C31.8469 88.7497 31.7512 91.3937 31.7313 92.2253C31.7159 92.8699 32.1676 93.6502 33.4236 93.4378C38.4261 91.9222 42.8138 88.8992 45.9691 84.7941C49.1244 80.689 50.8886 75.7087 51.0132 70.5539C51.338 56.9604 40.4125 45.6495 26.5986 45.2782Z" fill="#FDEEDC"/>
</svg>
