<svg width="58" height="49" viewBox="0 0 58 49" fill="none" xmlns="http://www.w3.org/2000/svg">
<path d="M34.4135 6.94566C34.0846 8.23914 34.0733 9.57489 34.3804 10.8735L6.88756 10.6523L24.6883 23.88L36.741 15.0995C37.7429 16.1426 38.9977 17.0149 40.4277 17.653L24.6701 29.1357L5.6386 14.9946L5.44346 38.1375L43.4007 38.4428L43.5679 18.6072C45.1313 18.8831 46.7448 18.8961 48.3126 18.6454L48.1288 40.4449C48.1244 40.9658 47.8702 41.4633 47.4222 41.828C46.9742 42.1927 46.369 42.3948 45.7399 42.3897L3.03802 42.0462C2.40884 42.0411 1.80717 41.8294 1.36538 41.4575C0.923588 41.0856 0.677859 40.5841 0.682251 40.0632L0.947208 8.64048C0.9516 8.11961 1.20575 7.62209 1.65376 7.25737C2.10176 6.89264 2.70691 6.69058 3.33609 6.69564L34.4135 6.94566ZM45.9717 14.8949C45.0371 14.8873 44.1129 14.7275 43.2519 14.4245C42.391 14.1214 41.6101 13.6811 40.9538 13.1287C40.2975 12.5763 39.7788 11.9226 39.4271 11.2049C39.0755 10.4872 38.8979 9.71955 38.9044 8.94584C38.9109 8.17212 39.1015 7.40746 39.4652 6.69552C39.8289 5.98357 40.3586 5.33829 41.024 4.7965C41.6895 4.25472 42.4778 3.82705 43.3437 3.53791C44.2097 3.24876 45.1364 3.10381 46.0711 3.11133C47.9586 3.12652 49.7636 3.76182 51.089 4.87747C52.4143 5.99313 53.1515 7.49775 53.1384 9.06035C53.1252 10.6229 52.3627 12.1155 51.0187 13.2097C49.6747 14.3039 47.8592 14.91 45.9717 14.8949Z" fill="#FDEEDC"/>
</svg>
