<svg width="74" height="88" viewBox="0 0 74 88" fill="none" xmlns="http://www.w3.org/2000/svg">
<path d="M10.1588 5.59881C10.1393 6.84651 9.64973 8.03543 8.79773 8.90402C7.94573 9.7726 6.8011 10.2497 5.61564 10.2304C4.43018 10.211 3.301 9.69681 2.47651 8.80087C1.65202 7.90493 1.19975 6.70064 1.21921 5.45293C1.23866 4.20523 1.72824 3.01631 2.58024 2.14772C3.43224 1.27914 4.57687 0.802039 5.76233 0.821382C6.94779 0.840726 8.07697 1.35493 8.90146 2.25087C9.72595 3.14681 10.1782 4.3511 10.1588 5.59881ZM10.1691 13.7868L1.22949 13.6456L0.784325 43.0959L9.72396 43.2371L10.1691 13.7868ZM24.2937 14.0098L15.3988 13.8694L14.9536 43.3197L23.7592 43.4587L23.9928 28.0044C24.1229 19.3951 34.7955 18.7637 34.6533 28.1727L34.4197 43.6271L43.2476 43.7665L43.5295 25.113C43.7489 10.5996 27.9623 10.8915 24.1446 17.9602L24.2937 14.0098Z" fill="#FDEEDC"/>
</svg>
